<?xml version="1.0" standalone="no"?>
<!DOCTYPE svg PUBLIC "-//W3C//DTD SVG 20010904//EN"
 "http://www.w3.org/TR/2001/REC-SVG-20010904/DTD/svg10.dtd">
<svg version="1.0" xmlns="http://www.w3.org/2000/svg"
 width="600.000000pt" height="416.000000pt" viewBox="0 0 600.000000 416.000000"
 preserveAspectRatio="xMidYMid meet">

<g transform="translate(0.000000,416.000000) scale(0.100000,-0.100000)"
fill="#000000" stroke="none">
<path d="M1215 4039 c-396 -41 -710 -208 -921 -488 -104 -139 -174 -286 -220
-460 -160 -612 116 -1251 651 -1511 324 -157 764 -180 1127 -60 320 107 583
331 733 626 149 291 192 669 115 1000 -105 450 -433 757 -922 863 -174 38
-383 49 -563 30z m345 -184 c167 -54 283 -127 398 -250 154 -164 249 -371 299
-645 23 -130 23 -445 -1 -585 -66 -394 -238 -636 -517 -730 -67 -22 -108 -29
-204 -32 -273 -11 -488 67 -678 247 -185 175 -302 412 -353 715 -21 123 -24
424 -5 540 61 388 231 629 515 732 91 32 170 42 316 39 125 -3 156 -7 230 -31z"/>
<path d="M5268 4039 c-202 -29 -356 -104 -470 -228 -170 -184 -197 -469 -68
-727 81 -160 200 -285 490 -515 306 -241 394 -370 394 -579 1 -75 -3 -93 -31
-152 -88 -186 -304 -275 -546 -223 -214 45 -346 213 -374 475 -6 66 -23 85
-50 58 -18 -19 -32 -201 -33 -424 0 -176 -4 -169 112 -214 264 -103 671 -85
902 38 226 122 351 320 363 578 16 335 -125 562 -552 887 -290 221 -377 314
-416 441 -47 152 16 316 149 389 135 73 314 75 462 5 97 -47 201 -190 215
-296 11 -82 14 -92 35 -92 10 0 22 5 26 11 11 18 23 493 13 505 -12 15 -190
52 -309 64 -111 11 -231 11 -312 -1z"/>
<path d="M3110 3985 c-19 -22 15 -36 102 -41 93 -6 159 -32 191 -75 13 -18 22
-56 29 -114 5 -53 8 -525 5 -1194 -3 -972 -6 -1119 -20 -1210 -24 -148 -43
-212 -94 -320 -39 -82 -58 -107 -142 -191 -53 -53 -123 -111 -156 -130 -42
-25 -60 -41 -60 -55 0 -32 49 -22 160 35 248 126 473 332 594 543 44 78 97
246 117 372 16 99 17 206 15 1105 -2 1043 0 1115 40 1172 27 37 54 48 154 62
70 10 80 14 80 31 0 20 -7 20 -502 21 -394 2 -504 -1 -513 -11z"/>
<path d="M120 985 l0 -65 1355 0 1355 0 0 65 0 65 -1355 0 -1355 0 0 -65z"/>
<path d="M4140 985 l0 -65 920 0 920 0 0 65 0 65 -920 0 -920 0 0 -65z"/>
<path d="M222 443 c-127 -62 -111 -255 24 -292 77 -21 130 -6 180 51 72 82 46
202 -53 244 -43 19 -110 17 -151 -3z m159 -29 c76 -72 56 -224 -33 -250 -109
-33 -205 83 -166 201 28 85 134 111 199 49z"/>
<path d="M558 312 c2 -84 -1 -148 -6 -155 -8 -9 1 -12 33 -12 32 0 39 2 28 10
-11 8 -15 41 -16 145 l-2 135 36 3 c30 3 41 -2 58 -24 34 -43 25 -86 -24 -112
-18 -10 -18 -11 -2 -12 10 0 32 13 48 29 35 35 39 81 9 111 -20 20 -35 23
-120 24 l-45 1 3 -143z"/>
<path d="M838 318 c2 -77 -1 -145 -6 -155 -9 -16 -6 -18 41 -16 29 1 66 2 83
2 23 1 33 6 37 22 5 19 4 20 -12 5 -21 -19 -82 -21 -99 -4 -7 7 -12 38 -12 70
l0 58 43 0 c24 0 47 -4 53 -9 5 -6 9 -2 10 12 2 20 -2 22 -52 19 l-54 -4 0 61
0 61 43 0 c24 0 48 -5 55 -12 9 -9 12 -8 12 8 0 17 -7 19 -73 19 l-72 0 3
-137z"/>
<path d="M1100 316 c0 -122 -3 -151 -15 -160 -13 -9 -8 -11 24 -11 35 0 38 1
26 15 -9 10 -15 49 -17 123 -2 59 -1 107 2 107 3 0 57 -54 120 -120 63 -66
120 -120 125 -120 6 0 9 50 7 135 -2 74 1 142 6 152 8 15 6 18 -13 18 -20 0
-22 -4 -19 -35 9 -93 12 -210 6 -210 -4 0 -62 57 -129 128 l-122 127 -1 -149z"/>
<path d="M1665 283 c0 -165 -1 -173 -24 -204 l-24 -32 26 19 c51 38 57 61 57
214 0 78 4 149 9 158 7 14 4 17 -17 17 l-27 0 0 -172z"/>
<path d="M1878 440 c-51 -27 -78 -75 -78 -140 0 -97 60 -154 160 -155 71 0
121 30 149 89 26 52 26 89 2 142 -34 75 -151 107 -233 64z m138 -6 c62 -30 92
-132 60 -209 -19 -44 -56 -67 -108 -67 -75 1 -129 64 -130 150 0 111 84 171
178 126z"/>
<path d="M2207 395 c8 -153 14 -185 39 -215 49 -58 170 -45 202 22 7 15 16 78
20 140 7 109 6 113 -13 113 -19 0 -20 -7 -20 -122 0 -119 -1 -123 -26 -149
-36 -36 -92 -36 -128 0 -25 26 -26 30 -26 149 l0 122 -25 0 c-25 0 -26 -2 -23
-60z"/>
<path d="M2588 312 c2 -84 -1 -148 -6 -155 -8 -9 1 -12 34 -13 35 -1 41 1 30
10 -10 7 -16 32 -18 66 -3 55 -3 55 28 58 27 3 36 -4 77 -57 32 -40 58 -63 83
-71 42 -14 56 -7 21 12 -14 7 -46 39 -72 70 l-47 58 26 31 c31 37 34 81 6 109
-22 22 -27 23 -110 24 l-55 1 3 -143z m124 111 c24 -29 29 -54 17 -90 -11 -35
-36 -48 -80 -41 -22 3 -24 8 -27 76 l-3 72 39 0 c25 0 44 -6 54 -17z"/>
<path d="M2911 315 c-1 -83 -5 -155 -10 -160 -6 -6 5 -11 30 -12 39 -1 40 0
20 14 -19 13 -21 24 -21 126 l0 112 123 -123 c67 -67 124 -122 127 -122 3 0 4
30 2 67 -2 38 1 106 5 153 8 84 8 85 -14 85 -15 0 -21 -5 -19 -15 9 -32 18
-230 10 -230 -4 0 -63 57 -130 128 l-123 127 0 -150z"/>
<path d="M3335 316 c-31 -80 -65 -152 -75 -159 -17 -12 -14 -13 20 -12 21 0
35 4 31 8 -5 5 -2 31 7 58 l16 49 56 0 57 0 18 -55 c12 -35 25 -55 35 -55 8 0
26 -3 40 -7 l25 -7 -27 25 c-17 15 -46 72 -79 154 -29 72 -55 134 -59 138 -4
5 -33 -57 -65 -137z m78 25 c9 -27 17 -51 17 -55 0 -3 -18 -6 -40 -6 -22 0
-40 3 -40 8 0 14 34 102 40 102 3 0 13 -22 23 -49z"/>
<path d="M3623 395 c11 -79 3 -221 -14 -242 -12 -15 -12 -16 4 -10 10 4 54 7
97 7 70 0 78 2 83 21 5 19 4 20 -12 5 -22 -20 -94 -21 -111 -2 -8 11 -11 55
-8 148 l3 133 -26 0 c-25 0 -25 0 -16 -60z"/>
<path d="M4036 439 c-18 -14 -26 -30 -26 -52 0 -26 12 -42 65 -92 48 -44 65
-67 65 -86 0 -34 -21 -51 -64 -51 -42 0 -55 7 -66 36 -8 19 -9 17 -9 -10 -1
-34 15 -44 76 -44 44 0 93 43 93 82 0 42 -12 60 -75 107 -45 34 -55 47 -55 71
0 49 62 68 100 30 l20 -20 0 25 c0 23 -3 25 -49 25 -34 0 -56 -6 -75 -21z"/>
<path d="M4243 431 c14 -14 42 -53 63 -86 33 -52 38 -68 38 -117 -1 -31 -6
-63 -12 -70 -8 -10 -1 -13 34 -13 35 0 41 2 29 11 -10 8 -15 29 -15 70 0 50 6
68 36 119 20 33 47 72 60 86 l25 26 -30 -1 c-20 -1 -29 -6 -28 -16 2 -15 -63
-140 -73 -140 -9 0 -80 126 -80 141 0 9 -12 14 -35 15 l-35 1 23 -26z"/>
<path d="M4565 436 c-14 -14 -25 -32 -25 -41 0 -31 28 -70 75 -105 53 -40 70
-71 54 -101 -22 -43 -92 -43 -126 -1 -12 15 -13 15 -11 -8 2 -20 11 -27 39
-34 74 -18 134 18 132 80 -1 39 -6 45 -101 126 -18 14 -32 35 -32 46 0 51 72
70 110 30 l22 -23 -4 25 c-3 23 -8 25 -55 28 -45 3 -56 -1 -78 -22z"/>
<path d="M4774 451 c-2 -2 -4 -11 -4 -19 0 -11 3 -12 14 -3 8 7 34 11 58 9
l43 -3 -2 -134 c-1 -73 -7 -138 -12 -145 -7 -8 3 -11 35 -11 35 0 41 2 29 11
-12 9 -15 37 -15 148 l0 136 42 0 c25 0 49 -7 61 -17 20 -17 20 -17 14 0 -4
10 -7 22 -7 25 0 7 -249 10 -256 3z"/>
<path d="M5121 438 c14 -27 11 -239 -4 -268 l-13 -25 75 2 c91 4 101 7 101 30
-1 17 -1 17 -11 0 -12 -20 -78 -24 -97 -5 -7 7 -12 38 -12 70 l0 58 44 0 c26
0 46 -5 49 -12 3 -7 6 -3 6 10 1 20 -4 22 -49 22 l-50 0 0 60 0 60 43 0 c24 0
48 -5 55 -12 9 -9 12 -8 12 8 0 17 -7 19 -79 19 -71 0 -78 -2 -70 -17z"/>
<path d="M5388 314 c-9 -80 -21 -151 -26 -157 -8 -9 -1 -12 23 -13 28 0 31 2
23 16 -11 18 -1 210 10 210 4 -1 27 -44 52 -97 68 -145 60 -144 121 -18 30 61
55 112 56 114 7 11 12 -12 22 -108 6 -58 12 -105 14 -106 1 -1 18 -5 37 -8 35
-7 35 -7 14 11 -19 14 -24 37 -38 157 -9 76 -18 141 -20 142 -1 2 -32 -56 -67
-127 l-64 -131 -65 131 c-36 71 -67 130 -70 130 -3 0 -13 -66 -22 -146z"/>
<path d="M5836 439 c-18 -14 -26 -30 -26 -52 0 -26 12 -42 65 -92 48 -44 65
-67 65 -86 0 -34 -21 -51 -64 -51 -42 0 -55 7 -66 36 -8 19 -9 17 -9 -10 -1
-25 4 -33 22 -38 43 -11 85 -6 111 15 61 48 50 99 -34 164 -65 50 -78 77 -49
106 25 25 64 24 89 -1 l20 -20 0 25 c0 23 -3 25 -49 25 -34 0 -56 -6 -75 -21z"/>
</g>
</svg>
